<svg width="28" height="28" viewBox="0 0 28 28" fill="none" xmlns="http://www.w3.org/2000/svg">
<g clip-path="url(#clip0_304_117)">
<path d="M14 25.4566C13.7786 25.8484 13.5059 26.2084 13.1893 26.5269C12.7266 26.9946 12.1768 27.3655 11.5714 27.6183C10.966 27.8711 10.317 28.0008 9.66175 28C9.00644 28.0007 8.35745 27.871 7.75204 27.6182C7.14663 27.3654 6.59674 26.9945 6.13395 26.5269C5.63592 26.0259 5.24892 25.4242 4.9985 24.7614C4.74808 24.0987 4.63992 23.39 4.68116 22.682C3.67767 22.264 2.80635 21.5779 2.1611 20.6977C1.40593 19.6698 0.998848 18.4242 1 17.1451C0.999868 16.5144 1.09889 15.8875 1.2934 15.288C1.43965 14.8364 1.63892 14.404 1.88698 14C1.63893 13.596 1.43966 13.1636 1.2934 12.712C1.09886 12.1125 0.99983 11.4856 1 10.8549C1 9.52686 1.43088 8.29914 2.16053 7.30229C2.80523 6.42153 3.6767 5.73533 4.6806 5.318C4.63925 4.61 4.74738 3.90122 4.99786 3.23844C5.24834 2.57567 5.63546 1.974 6.13367 1.47315C6.59641 1.00538 7.14634 0.634423 7.75181 0.381608C8.35729 0.128792 9.00638 -0.000894423 9.66175 4.64277e-06C10.317 -0.000693891 10.966 0.129086 11.5713 0.381892C12.1767 0.634698 12.7265 1.00555 13.1893 1.47315C13.5055 1.7921 13.7782 2.15213 14 2.54372C14.2214 2.15182 14.4941 1.79173 14.8107 1.47315C15.2734 1.00545 15.8232 0.63453 16.4286 0.381717C17.034 0.128904 17.683 -0.000819089 18.3382 4.64277e-06C18.9936 -0.000769185 19.6427 0.128975 20.2481 0.381783C20.8536 0.634591 21.4035 1.00548 21.8663 1.47315C22.3644 1.97411 22.7514 2.57581 23.0018 3.23856C23.2522 3.90131 23.3604 4.61004 23.3191 5.318C24.3227 5.73597 25.1941 6.42204 25.8395 7.30229C26.5944 8.33032 27.0013 9.57584 27 10.8549C27 11.5011 26.8968 12.1251 26.7066 12.712C26.5604 13.1636 26.3611 13.596 26.113 14C26.3611 14.404 26.5603 14.8364 26.7066 15.288C26.9011 15.8875 27.0002 16.5144 27 17.1451C27 18.4731 26.5691 19.7009 25.8395 20.6977C25.1948 21.5785 24.3233 22.2647 23.3194 22.682C23.3608 23.39 23.2527 24.0988 23.0023 24.7615C22.7518 25.4243 22.3648 26.026 21.8666 26.5269C21.4039 26.9946 20.8539 27.3656 20.2485 27.6184C19.643 27.8712 18.9939 28.0009 18.3385 28C17.6832 28.0007 17.0342 27.871 16.4288 27.6182C15.8234 27.3654 15.2735 26.9945 14.8107 26.5269C14.4945 26.208 14.2218 25.8481 14 25.4566ZM14.6511 5.028V17.5849C14.6511 17.9477 14.36 18.2411 14 18.2411C13.64 18.2411 13.3489 17.9477 13.3489 17.5849V5.028C13.3496 4.53977 13.2545 4.05622 13.0692 3.60512C12.8839 3.15402 12.612 2.74428 12.2691 2.39943C11.9271 2.0538 11.5206 1.77975 11.0731 1.59303C10.6255 1.4063 10.1458 1.31061 9.66147 1.31143C8.64381 1.31143 7.72168 1.72658 7.05382 2.39972C6.67403 2.78186 6.38177 3.24311 6.19755 3.75114C6.01333 4.25916 5.9416 4.80165 5.9874 5.34057C5.99647 5.452 6.00979 5.556 6.0251 5.64972L6.02737 5.66629C6.16457 6.38172 6.46023 6.93857 6.79557 7.364C7.0854 7.72809 7.43358 8.04078 7.82571 8.28915C7.89791 8.33486 7.96047 8.39447 8.00981 8.46456C8.05916 8.53464 8.09433 8.61384 8.1133 8.69762C8.13228 8.78141 8.1347 8.86814 8.12042 8.95287C8.10615 9.0376 8.07545 9.11866 8.03009 9.19143C7.98473 9.2642 7.9256 9.32726 7.85606 9.37699C7.78652 9.42673 7.70795 9.46217 7.62482 9.4813C7.54169 9.50043 7.45564 9.50287 7.37158 9.48848C7.28752 9.47409 7.20709 9.44315 7.13489 9.39743C6.61873 9.07113 6.16083 8.65946 5.78046 8.17972C5.41443 7.71658 5.13117 7.19276 4.94337 6.63172C4.25549 6.96433 3.65889 7.46167 3.20569 8.08029C2.61844 8.88371 2.30292 9.85609 2.30567 10.854C2.30567 11.3626 2.38533 11.8517 2.53245 12.306C2.68287 12.7711 2.9049 13.2095 3.19039 13.6051C3.27481 13.7175 3.32097 13.8544 3.32199 13.9953C3.32302 14.1363 3.27884 14.2738 3.19606 14.3874C2.90741 14.7845 2.68313 15.2252 2.5316 15.6931C2.38419 16.1474 2.30482 16.636 2.30482 17.1451C2.30482 18.1851 2.64017 19.1451 3.20484 19.9186C3.78938 20.7175 4.61012 21.309 5.54915 21.6083C5.75268 21.6529 7.61424 22.0214 8.91849 20.8494C8.98226 20.7922 9.05659 20.7482 9.13723 20.7199C9.21788 20.6916 9.30326 20.6796 9.38851 20.6846C9.47376 20.6896 9.5572 20.7114 9.63407 20.7489C9.71093 20.7864 9.77973 20.8387 9.83651 20.903C9.8933 20.9673 9.93697 21.0422 9.96504 21.1235C9.9931 21.2048 10.005 21.2908 10.0001 21.3767C9.99513 21.4627 9.97345 21.5468 9.93627 21.6242C9.89909 21.7017 9.84713 21.771 9.78336 21.8283C8.51454 22.9677 6.89989 23.0503 5.97634 22.9823C5.97886 23.9636 6.36712 24.9038 7.05608 25.5971C7.72366 26.2703 8.64494 26.6854 9.66402 26.6854C10.6831 26.6854 11.6038 26.2703 12.2714 25.5971C12.828 25.0369 13.192 24.3118 13.31 23.528C13.3326 23.3724 13.4101 23.2302 13.5283 23.1274C13.6465 23.0247 13.7975 22.9684 13.9535 22.9689H14.0499C14.2061 22.968 14.3573 23.0241 14.4756 23.1269C14.5939 23.2297 14.6712 23.3722 14.6934 23.528C14.8111 24.3119 15.175 25.037 15.7317 25.5971C16.0738 25.9429 16.4803 26.217 16.9279 26.4038C17.3755 26.5905 17.8552 26.6863 18.3397 26.6854C19.3573 26.6854 20.2795 26.2703 20.9473 25.5971C21.3271 25.215 21.6193 24.7537 21.8034 24.2457C21.9876 23.7377 22.0593 23.1952 22.0135 22.6563C22.0049 22.5449 21.9913 22.442 21.976 22.3471L21.9738 22.3306C21.8363 21.6151 21.5409 21.0583 21.2053 20.6329C20.9155 20.2688 20.5675 19.9561 20.1754 19.7077C20.1032 19.662 20.0407 19.6024 19.9913 19.5323C19.942 19.4622 19.9068 19.383 19.8878 19.2992C19.8689 19.2155 19.8664 19.1287 19.8807 19.044C19.895 18.9593 19.9257 18.8782 19.971 18.8054C20.0164 18.7327 20.0755 18.6696 20.1451 18.6199C20.2146 18.5701 20.2932 18.5347 20.3763 18.5156C20.4594 18.4964 20.5455 18.494 20.6296 18.5084C20.7136 18.5228 20.794 18.5537 20.8662 18.5994C21.3824 18.9257 21.8403 19.3374 22.2207 19.8171C22.5867 20.2803 22.87 20.8041 23.0578 21.3651C23.7453 21.0322 24.3418 20.5349 24.7952 19.9166C25.3825 19.1132 25.6981 18.1408 25.6955 17.1429C25.6955 16.6343 25.6155 16.1451 25.4684 15.6909C25.318 15.2259 25.0961 14.7876 24.8107 14.392C24.7263 14.2796 24.6801 14.1427 24.679 14.0017C24.678 13.8606 24.7222 13.7231 24.8051 13.6094C25.0933 13.2121 25.3175 12.7715 25.4695 12.3037C25.6169 11.8494 25.6963 11.3609 25.6963 10.8517C25.6963 9.81172 25.361 8.85172 24.7963 8.07829C24.2118 7.27939 23.391 6.68782 22.452 6.38857C22.2484 6.344 20.3869 5.97429 19.0824 7.14743C19.0186 7.20465 18.9443 7.24865 18.8636 7.27692C18.783 7.30518 18.6976 7.31716 18.6124 7.31218C18.5271 7.30719 18.4437 7.28533 18.3669 7.24785C18.29 7.21036 18.2212 7.15799 18.1645 7.09372C18.1077 7.02944 18.0641 6.95453 18.036 6.87325C18.008 6.79198 17.9961 6.70593 18.001 6.62002C18.006 6.53411 18.0277 6.45003 18.0648 6.37257C18.102 6.29511 18.154 6.22579 18.2178 6.16857C19.4866 5.02915 21.1012 4.94657 22.0248 5.01457C22.0222 4.03326 21.6338 3.09299 20.9448 2.39972C20.2772 1.72658 19.3559 1.31143 18.3374 1.31143C17.3189 1.31143 16.3973 1.72658 15.7295 2.39972C15.3865 2.74441 15.1145 3.1541 14.9292 3.60517C14.744 4.05625 14.6491 4.53981 14.65 5.028H14.6511Z" fill="black"/>
</g>
<defs>
<clipPath id="clip0_304_117">
<rect width="26" height="28" fill="white" transform="translate(1)"/>
</clipPath>
</defs>
</svg>
