<svg width="500" height="500" viewBox="0 0 500 500" fill="none" xmlns="http://www.w3.org/2000/svg">
<path d="M293.2 160.3L473 263.9C476.5 265.9 477.7 270.4 475.7 273.9C475.1 275 474.1 275.9 473 276.6L219.4 422.1C213.3 425.6 205.7 425.7 199.5 422.3L24.6004 327.1C21.1004 325.2 19.8004 320.7 21.7004 317.2C22.3004 316 23.3004 315 24.5004 314.4L295.8 157.4" fill="#B7B7B7"/>
<path d="M275.101 377.4V368.3L282.001 365V373.9L275.101 377.4Z" fill="#34323D"/>
<path d="M282.001 365L249.901 347.5L243.301 351.4L275.101 368.3L282.001 365Z" fill="#666666"/>
<path d="M243.301 351.4V361.3L275.101 377.4V368.3" fill="#34323D"/>
<path d="M265.7 369.6C265.5 369.1 265.3 368.7 265 368.3C264.2 367.3 263.2 366.5 262.2 365.8C261.2 365.2 260.1 364.7 259.1 364.1C258.5 363.7 257.9 363.3 257.3 363C256.6 362.6 256 362.3 255.2 362C253.6 361.6 251.6 363.1 250.1 364L244.2 367.4L235.3 372.5L224.7 378.5L213.8 384.7L203.9 390.3L196.5 394.5L192.9 396.5L192.8 396.6C191.4 397 190.4 398.2 190.4 399.7V400.1C190.4 401.3 191.1 402.3 192.1 402.9L200.3 407.3C201.5 407.9 202.9 407.8 203.9 406.9L261.1 374L261.9 373.6C262.9 372.6 264.6 372.3 265.7 370.3C265.8 369.9 265.7 369.8 265.7 369.6Z" fill="#666666"/>
<path d="M204.401 406.5L265.401 371.5C265.901 371.2 266.101 370.7 266.001 370.1C265.901 369.5 265.601 368.9 265.201 368.3C264.601 367.6 263.901 367 263.201 366.4L203.301 401.7C204.101 402.4 204.501 403.3 204.701 404.3C204.801 404.9 204.701 405.5 204.401 406.1C204.401 406.3 204.401 406.4 204.401 406.5Z" fill="#34323D"/>
<path d="M350.1 243.1L396.8 221.2L442.8 243.1L396.8 266.7L350.1 243.1Z" fill="#3C3B3B"/>
<path d="M398.1 240.4L409.5 234.3L415.8 237.3L400.1 246.1L398.1 240.4Z" fill="#34323D"/>
<path d="M350.1 243.101L396.8 266.701V300.801L350.1 277.701V243.101Z" fill="#3C3B3B"/>
<path d="M396.8 266.701L442.8 243.101V276.601L396.8 300.801V266.701Z" fill="#F5F5F5"/>
<path d="M350.1 243.1L373.5 225.5L419.8 249.5L396.8 266.7L350.1 243.1Z" fill="#F5F5F5"/>
<path d="M376.3 223.6L396.8 221.2L442.8 243.1L439.2 244.9L423.6 247.3L376.3 223.6Z" fill="#F5F5F5"/>
<path d="M53 278.2L78.2 266.4L103 278.2L78.2 290.9L53 278.2Z" fill="#3C3B3B"/>
<path d="M78.9004 276.8L85.1004 273.4L88.4004 275.1L79.9004 279.8L78.9004 276.8Z" fill="#34323D"/>
<path d="M53 278.2L78.2 290.9L78.9 339.1L53 324.4V278.2Z" fill="#3C3B3B"/>
<path d="M78.2002 290.9L103 278.2V325L78.9002 339.1L78.2002 290.9Z" fill="#F5F5F5"/>
<path d="M53 278.2L65.6 268.7L90.6 281.6L78.2 290.9L53 278.2Z" fill="#F5F5F5"/>
<path d="M67.2002 267.7L78.2002 266.4L103 278.2L101.1 279.2L92.6002 280.5L67.2002 267.7Z" fill="#F5F5F5"/>
<path d="M228.501 273.2L269.501 288.6C269.501 288.6 271.201 289.7 270.101 292.4C269.501 293.9 266.101 296.1 266.101 296.1L230.701 316.7C228.801 317.6 226.701 318.1 224.601 318.3C221.801 318.5 217.001 316.2 217.001 316.2L184.101 297.1L228.501 273.2Z" fill="#34323D"/>
<path d="M229.101 271.3L268.201 287.3C268.201 287.3 270.901 288.8 270.201 290.8C269.401 292.3 268.201 293.5 266.701 294.3L231.201 314.7C229.301 315.6 227.201 316.1 225.101 316.3C222.301 316.5 217.501 314.2 217.501 314.2L186.301 296.5L229.101 271.3Z" fill="black"/>
<path d="M136.6 325.1C135.1 325.8 133.3 325.3 132.2 324C132.2 324 131.4 323.9 131.4 320.5V164.5C131.5 161.8 132.7 159.2 134.8 157.4C138.6 154.7 142.6 152.3 146.7 150.1L320.1 50.1002L322.1 49.1002C323.5 48.4002 325.1 48.9002 326 50.1002C326.5 51.0002 326.8 51.9002 326.9 52.9002C327 54.5002 326.9 70.3002 326.9 70.3002V210.7C326.9 213.4 325.8 216 323.7 217.9L136.6 325.1Z" fill="#030303"/>
<path d="M134.5 301.5V166.9C134.5 162.4 135.1 159.9 138.6 158.1L321.6 52.1004C322.7 51.3004 324.2 51.5004 325 52.6004C325.3 53.0004 325.5 53.5004 325.5 54.1004L325 192.5L134.5 301.5Z" fill="#BBBBBB"/>
<path d="M198.301 229.601L203.101 221.201C203.101 221.101 203.201 221.101 203.201 221.101C203.201 221.001 203.301 221.001 203.301 221.001L205.901 219.601V218.301V218.201C205.901 218.001 206.001 217.701 206.201 217.601L208.601 216.201C209.001 216.001 209.001 216.701 208.601 216.901L206.501 218.101V219.501C206.501 219.701 206.401 219.901 206.301 220.001C206.301 220.101 206.201 220.201 206.101 220.201L203.501 221.701L198.701 229.901C198.501 230.301 198.001 230.101 198.301 229.601Z" fill="#34323D"/>
<path d="M199.101 230.4L210.901 223.9C211.301 223.7 211.301 224.4 210.901 224.6L199.101 231.1C198.701 231.3 198.701 230.6 199.101 230.4Z" fill="#34323D"/>
<path d="M198.301 233.001L203.101 236.101H203.201H203.301L205.901 234.701V236.001V236.101C205.901 236.301 205.901 236.501 206.201 236.401L208.601 235.001C209.001 234.801 209.001 234.001 208.601 234.301L206.501 235.401V234.001C206.501 233.801 206.401 233.801 206.301 233.801C206.201 233.801 206.201 233.801 206.101 233.801L203.501 235.201L198.801 232.101C198.501 232.101 198.001 232.901 198.301 233.001Z" fill="#34323D"/>
<path d="M186 236.9L181.2 233.9H181.1H181L178.4 235.3V234V233.9C178.4 233.7 178.4 233.5 178.1 233.6L175.7 235C175.3 235.2 175.3 235.9 175.7 235.7L177.8 234.5V235.9C177.8 236.1 177.9 236.1 178 236.1C178.1 236.1 178.1 236.1 178.2 236.1L180.8 234.7L185.5 237.7C185.9 237.8 186.3 237.1 186 236.9Z" fill="#34323D"/>
<path d="M185.201 238.501L173.401 245.001C173.001 245.201 173.001 245.901 173.401 245.701L185.201 239.201C185.601 239.101 185.601 238.301 185.201 238.501Z" fill="#34323D"/>
<path d="M186 240.4L181.2 248.6C181.2 248.7 181.1 248.7 181.1 248.7L181 248.8L178.4 250.2V251.5V251.6C178.4 251.8 178.3 252.1 178.1 252.2L175.7 253.6C175.3 253.8 175.3 253.1 175.7 252.9L177.8 251.8V250.4C177.8 250.2 177.9 250 178 249.9C178 249.8 178.1 249.7 178.2 249.7L180.8 248.3L185.5 240.2C185.9 239.6 186.3 239.9 186 240.4Z" fill="#34323D"/>
<path d="M189.7 220.6C189.7 220.4 189.7 220.1 189.4 220.3L188 221V219.2C188 218.7 187.4 219.1 187.4 219.5V221.6C187.4 221.8 187.6 221.9 187.7 221.8C187.8 221.8 187.9 221.8 187.9 221.8L189.1 221.1V226.7C189.1 227.2 189.7 226.8 189.7 226.4V220.6Z" fill="#34323D"/>
<path d="M188.601 217.9C188.601 218.6 188.201 219.2 187.601 219.6C187.101 219.9 186.601 219.6 186.601 219C186.601 218.3 187.001 217.6 187.601 217.3C188.101 217 188.601 217.3 188.601 217.9Z" fill="#34323D"/>
<path d="M196.401 216.8C196.301 216.5 196.501 216.3 196.701 216.2L198.101 215.4V213.5C198.101 213 198.701 212.7 198.701 213.2V215.3C198.701 215.5 198.601 215.7 198.401 215.8C198.401 215.9 198.301 216 198.201 216L197.001 216.7V222.3C197.001 222.8 196.401 223.1 196.401 222.6V217C196.401 216.9 196.401 216.9 196.401 216.8Z" fill="#34323D"/>
<path d="M197.601 212.9C197.601 213.5 198.001 213.8 198.601 213.5C199.201 213.1 199.601 212.5 199.601 211.8C199.601 211.1 199.201 210.9 198.601 211.2C198.101 211.5 197.701 212.1 197.601 212.9Z" fill="#34323D"/>
<path d="M201.7 228.4C201.7 234.2 197.7 241 192.9 243.6C188.1 246.2 184.2 243.7 184.2 238C184.5 231.8 187.8 226.1 193 222.8C197.8 220.1 201.8 222.6 201.7 228.4Z" fill="#F5F5F5"/>
<path d="M193.7 222.4C197 223.5 199 227 198.4 232.5C197.9 236.2 196.5 239.6 194.3 242.6C198.7 239.1 201.4 233.9 201.6 228.3C201.8 222.9 198.2 220.4 193.7 222.4Z" fill="#757575"/>
<path d="M200.6 223.801C199.1 221.501 196.3 221.101 193 222.801C189.5 225.001 186.8 228.301 185.4 232.201L192.8 228.101V243.401C192.8 243.901 193.4 243.501 193.4 243.101V227.801L200.6 223.801Z" fill="#34323D"/>
<path d="M197.901 227.701C198.501 228.101 198.501 229.101 197.901 230.101C197.301 231.101 196.401 231.601 195.901 231.201C195.401 230.801 195.301 229.801 195.901 228.801C196.501 227.801 197.401 227.301 197.901 227.701Z" fill="#34323D"/>
<path d="M198.901 233.3C199.501 233.7 199.501 234.7 198.901 235.7C198.301 236.7 197.401 237.2 196.901 236.8C196.401 236.4 196.301 235.4 196.901 234.4C197.501 233.4 198.401 232.9 198.901 233.3Z" fill="#34323D"/>
<path d="M190.2 232C190.8 232.4 190.8 233.4 190.2 234.4C189.6 235.4 188.7 235.9 188.2 235.5C187.7 235.1 187.6 234.1 188.2 233.1C188.8 232.1 189.6 231.6 190.2 232Z" fill="#34323D"/>
<path d="M189.3 238.5C189.9 238.9 189.9 239.9 189.3 240.9C188.7 241.9 187.8 242.4 187.3 242C186.8 241.6 186.7 240.6 187.3 239.6C187.9 238.6 188.8 238.2 189.3 238.5Z" fill="#34323D"/>
<path d="M252.4 148.1L263.1 129.5C263.2 129.4 263.3 129.3 263.4 129.2C263.5 129.1 263.6 129 263.7 128.9L269.4 125.7V122.8C269.4 122.7 269.4 122.6 269.4 122.5C269.3 122 269.6 121.4 270 121.1L275.3 118.1C276.2 117.6 276.2 119.3 275.3 119.7L270.7 122.3V125.4C270.7 125.8 270.5 126.2 270.2 126.5C270.1 126.7 269.9 126.9 269.7 127L263.9 130.2L253.4 148.6C252.7 149.9 251.7 149.2 252.4 148.1Z" fill="#34323D"/>
<path d="M254.2 149.9L280.4 135.5C281.3 135 281.3 136.6 280.4 137.1L254.2 151.5C253.3 152 253.3 150.4 254.2 149.9Z" fill="#34323D"/>
<path d="M252.3 155.9L262.8 162.8C262.9 162.8 263 162.8 263.1 162.8C263.2 162.8 263.3 162.8 263.4 162.7L269 159.7V162.6C269 162.7 269 162.8 269 162.8C269 163.3 269.1 163.7 269.6 163.4L274.9 160.5C275.8 160 275.8 158.4 274.9 158.9L270.3 161.4V158.3C270.3 157.9 270.1 157.7 269.8 157.8C269.5 157.9 269.5 157.7 269.3 157.8L263.5 160.9L253.1 154.1C252.7 153.8 251.7 155.5 252.3 155.9Z" fill="#34323D"/>
<path d="M225.1 164.4L214.5 157.7C214.4 157.7 214.3 157.7 214.2 157.7C214.1 157.7 214 157.7 213.9 157.8L208.2 161V158C208.2 157.9 208.2 157.8 208.2 157.8C208.2 157.3 208.1 156.9 207.6 157.2L202.3 160.2C201.4 160.7 201.4 162.3 202.3 161.8L206.9 159.2V162.2C206.9 162.6 207.1 162.7 207.4 162.6C207.7 162.5 207.7 162.7 207.9 162.6L213.7 159.4L224.1 166C224.7 166.4 225.7 164.7 225.1 164.4Z" fill="#34323D"/>
<path d="M223.2 168.1L197 182.5C196.1 183 196.1 184.6 197 184.1L223.2 169.7C224.1 169.2 224.1 167.6 223.2 168.1Z" fill="#34323D"/>
<path d="M225.101 172.101L214.401 190.5C214.301 190.6 214.201 190.7 214.101 190.9C214.001 191 213.901 191.1 213.801 191.2L208.101 194.301V197.101C208.101 197.201 208.101 197.3 208.101 197.4C208.201 197.9 207.901 198.4 207.501 198.7L202.101 201.601C201.201 202.101 201.201 200.5 202.101 200L206.701 197.5V194.5C206.701 194.1 206.901 193.7 207.201 193.5C207.301 193.3 207.501 193.1 207.701 193L213.501 189.801L224.001 171.7C224.701 170.4 225.701 171.001 225.101 172.101Z" fill="#34323D"/>
<path d="M233.201 128.201C233.301 127.701 233.101 127.201 232.601 127.501L229.501 129.201V125.101C229.501 124.101 228.101 124.801 228.101 125.901V130.601C228.101 131.101 228.501 131.201 228.801 131.001C228.901 131.101 229.101 131.101 229.301 131.001L231.901 129.501V142.001C231.901 143.101 233.301 142.301 233.301 141.201V128.501C233.201 128.401 233.201 128.301 233.201 128.201Z" fill="#34323D"/>
<path d="M230.701 122.301C230.601 123.901 229.801 125.301 228.501 126.101C227.301 126.801 226.301 126.201 226.301 124.701C226.401 123.101 227.201 121.701 228.501 120.901C229.701 120.301 230.701 120.901 230.701 122.301Z" fill="#34323D"/>
<path d="M248.2 119.8C248.1 119.3 248.4 118.7 248.8 118.4L251.9 116.6V112.5C251.9 111.5 253.3 110.7 253.3 111.7V116.4C253.3 116.9 253 117.4 252.5 117.6C252.4 117.8 252.2 118 252 118.1L249.4 119.5V132C249.4 133 248 133.8 248 132.8V120.1C248.1 120.1 248.1 120 248.2 119.8Z" fill="#34323D"/>
<path d="M250.801 111.1C250.801 112.5 251.801 113.2 253.001 112.5C254.301 111.6 255.101 110.2 255.201 108.6C255.201 107.2 254.201 106.5 253.001 107.2C251.601 108.1 250.801 109.5 250.801 111.1Z" fill="#34323D"/>
<path d="M259.8 145.501C259.7 158.301 251 173.501 240.3 179.301C229.6 185.101 221 179.601 221 167.001C221 154.401 229.8 139.201 240.5 133.201C251.2 127.201 259.9 132.601 259.8 145.501Z" fill="#F5F5F5"/>
<path d="M242.2 132.3C249.6 134.9 254 142.6 252.6 154.8C251.5 162.9 248.4 170.6 243.6 177.2C252.8 170.3 259.8 157 259.9 145.5C259.9 133.4 252.1 127.8 242.2 132.3Z" fill="#757575"/>
<path d="M257.301 135.301C254.001 130.201 247.701 129.101 240.501 133.101C233.301 137.101 227.001 145.201 223.601 154.001L240.101 144.901L240.001 178.701C240.001 179.701 241.401 179.001 241.401 178.001L241.501 144.101L257.301 135.301Z" fill="#34323D"/>
<path d="M251.501 143.9C252.701 144.7 252.701 147.1 251.501 149.3C250.301 151.5 248.201 152.6 247.001 151.8C245.801 151 245.801 148.6 247.001 146.4C248.201 144.2 250.301 143.1 251.501 143.9Z" fill="#34323D"/>
<path d="M253.701 156.4C254.901 157.2 254.901 159.6 253.701 161.8C252.501 164 250.401 165.1 249.201 164.3C248.001 163.5 248.001 161.1 249.201 158.9C250.401 156.7 252.401 155.6 253.701 156.4Z" fill="#34323D"/>
<path d="M234.201 153.4C235.401 154.2 235.401 156.6 234.201 158.8C233.001 161 230.901 162.1 229.701 161.3C228.501 160.5 228.501 158.1 229.701 156C230.901 153.9 233.001 152.7 234.201 153.4Z" fill="#34323D"/>
<path d="M232.401 168.1C233.601 168.9 233.601 171.3 232.401 173.4C231.201 175.5 229.201 176.7 227.901 175.9C226.601 175.1 226.701 172.7 227.901 170.6C229.101 168.5 231.201 167.3 232.401 168.1Z" fill="#34323D"/>
<path d="M133.4 190L165.2 171.4V177L133.4 195.6V190Z" fill="#8184A7"/>
<path d="M165.2 171.4V177L160 180.1V174.4L165.2 171.4Z" fill="#F5F5F5"/>
<path d="M160.001 174.5V180.1L154.801 183.2V177.5L160.001 174.5Z" fill="#9C926B"/>
<path d="M168.501 199.101V204.801L163.301 207.801V202.201L168.501 199.101Z" fill="#F5F5F5"/>
<path d="M163.301 202.3V207.9L158.101 211V205.3L163.301 202.3Z" fill="#9C926B"/>
<path d="M173.7 201.7V207.3L168.5 210.4V204.7L173.7 201.7Z" fill="#F5F5F5"/>
<path d="M168.501 204.8V210.4L163.301 213.5V207.8L168.501 204.8Z" fill="#9C926B"/>
<path d="M305.5 72V77.7L300.2 80.7V75.1L305.5 72Z" fill="#F5F5F5"/>
<path d="M300.2 75.2002V80.8002L295 83.9002V78.2002L300.2 75.2002Z" fill="#9C926B"/>
<path d="M310.7 74.6006V80.2006L305.5 83.2006V77.6006L310.7 74.6006Z" fill="#F5F5F5"/>
<path d="M305.5 77.7002V83.3002L300.2 86.4002V80.7002L305.5 77.7002Z" fill="#9C926B"/>
<path d="M303.001 303.9C303.001 303.9 294.701 300.2 292.701 300.1C290.701 300 287.401 300.6 290.301 304.3C290.301 304.3 299.001 310 300.201 310.2C301.401 310.4 304.201 309.5 304.201 309.8C304.201 310.1 304.501 312.3 304.501 312.3C304.501 312.3 311.801 315.1 312.101 310.2C312.101 309.6 311.101 300.5 311.101 300.5" fill="#34323D"/>
<path d="M312.5 282.5C311.1 273.1 308.4 264 307.3 254.5C306.6 248.5 306.1 242.5 305.4 236.6C304.7 230.7 302.4 224.8 301 218.9C300.9 218.6 301.1 218.3 301.3 218.2C301.3 218 301.2 217.8 301.1 217.6C300.4 216.9 299.6 216.2 298.9 215.6L288.7 222.5C288.7 222.5 288.7 228.7 289.1 237.8C290.3 243.1 291.2 247.8 292.5 252.8C292.2 253.1 292.1 253.6 292.2 254C295.5 269.8 297.9 285.7 299.4 301.8C299.4 302.3 299.8 302.8 300.3 303L300.6 305.5C309.5 308.9 311.4 303 311.4 303C311.4 303 311.8 297.9 312.3 290.9C312.6 287.9 312.6 285.2 312.5 282.5Z" fill="#34323D"/>
<path d="M253.8 192.7L253.6 192.8C253.9 192.2 253.6 191.6 253.1 191.3C253 191.2 252.9 191.2 252.8 191.2C252.3 191.1 251.7 191.1 251.2 191C251.2 190.9 251.1 190.9 251 190.9C250.8 190.8 250.6 190.7 250.4 190.6C250.2 190.4 249.8 190.3 249.5 190.3H246.1C246 190.2 245.9 190.1 245.8 190C243.2 187.9 240.8 185.6 238.5 183.1C237.7 182.3 236.1 183.2 236.7 184.3C237.4 185.6 238.1 186.8 239 187.9C236.2 186 235 185.8 232.4 183.7C231.3 182.8 230.1 184.6 231.2 185.5C231.8 186 234.2 187.2 234.9 187.7C233.7 187 230.8 185.6 229.6 184.8C228.4 184 227.2 185.9 228.4 186.6C230.3 187.7 232.2 188.9 234.1 190.1C232.5 189.5 230.9 188.8 229.3 188.1C228 187.5 227.4 189.6 228.6 190.1C230.4 190.9 232.2 191.7 234.1 192.3C233 192.3 231.9 192.2 230.8 192C229.4 191.8 229.3 193.9 230.6 194.1C231.7 194.3 232.8 194.4 234 194.6L235.7 194.8C236.4 194.8 237 195 237.6 195.2C239.9 196.1 242.4 196.6 244.8 196.7L245.3 196.9C245.6 197 246 197 246.2 196.8C249.1 196.8 252 196 254.4 194.5C256 193.9 255 192 253.8 192.7Z" fill="#FCBF81"/>
<path d="M271.8 176.3C271.9 175.9 265.5 176.3 264.9 176.3C261.5 176.3 258 176.1 254.6 175.7C254.5 175.7 254.4 175.7 254.3 175.7C253.6 175.6 253 175.6 252.3 175.6C251.9 175.6 251.5 176 251.5 176.4C251.5 176.6 251.6 176.8 251.8 177C253.2 178 254.9 178.6 256.7 178.7C256.8 179.2 257 179.8 257.2 180.4C257.3 180.3 257.5 180.4 257.6 180.5C257.8 180.7 257.9 180.9 258 181.2C258.1 181.4 258.1 181.5 258.2 181.7C258.2 181.8 258.2 181.8 258.2 181.9C258.7 182.4 259.5 182.7 260.2 182.6C260.6 183.2 261.2 183.7 262 183.9H262.2C263.2 183.4 264.2 183 265.2 182.6C265.4 182.6 265.6 182.7 265.6 182.9V183C266.3 182.6 267 182.1 267.6 181.6C267.7 181.5 267.8 181.3 267.9 181.2L268.3 181.1C268.7 181 269 180.6 268.9 180.2C268.8 180 268.7 179.8 268.5 179.7H268.9C269.2 180.1 269.8 180.1 270.1 179.8L270.2 179.7C270.5 179.4 270.5 178.8 270.2 178.5C270.1 178.4 270 178.4 269.9 178.3H271C271.1 178.3 271.2 178.2 271.2 178.1C271.2 178 271.2 178 271.1 177.9V177.8C271.7 177.8 272.3 177.9 272.9 178C279.8 177.5 272.1 176.3 271.8 176.3ZM269.9 179C269.8 179.2 269.5 179.3 269.3 179.2C269.5 179 269.6 178.8 269.5 178.6C269.6 178.6 269.7 178.5 269.7 178.4C270 178.5 270.1 178.7 270 179H269.9Z" fill="#FCBF81"/>
<path d="M271.2 177.1C270.2 177.5 269.2 177.6 268.1 177.6C267.2 177.5 266.4 178.2 266.4 179.1V179.2C266 179 265.6 178.8 265.3 178.6C263.5 177.5 261.6 180.3 263.5 181.4C264.9 182.4 266.6 182.9 268.3 182.9C269.9 182.7 271.5 182.3 273 181.5C273.3 180.5 273.4 179.5 273.3 178.4C273 177.5 272.1 176.9 271.2 177.1Z" fill="#FCBF81"/>
<path d="M269.201 181.9C266.801 183 264.001 182.5 262.301 180.5C262.301 180.5 262.201 180.4 262.101 180.4L259.801 180.3H258.801C258.201 180.2 256.301 179.4 257.801 178.6C258.601 178.4 259.301 178.4 260.101 178.5H262.401C262.501 178.5 262.601 178.4 262.601 178.3C262.601 178.2 262.501 178.1 262.401 178.1C261.001 178.1 259.601 178.1 258.201 178.2C257.601 178.2 256.801 178.3 256.801 179.1C256.701 179.7 257.101 180.2 257.601 180.5C257.901 181 257.901 181.7 258.401 182.1C258.901 182.4 259.501 182.6 260.101 182.6H260.501V182.7C260.901 183.3 261.301 184 262.101 183.9C262.401 183.9 262.701 183.7 263.001 183.6L264.501 183C264.601 183 264.601 182.9 264.601 182.8C266.201 183.3 268.001 183.2 269.501 182.5C269.601 182.2 269.401 181.8 269.201 181.9ZM259.401 181.9C258.901 181.9 258.401 181.6 258.201 181.1C258.101 180.9 258.101 180.8 258.001 180.6C259.301 180.9 260.601 180.9 261.901 180.9L262.001 181C261.901 181 261.901 181.1 261.901 181.2C261.901 182.2 260.101 182.1 259.401 181.9ZM262.401 183.2C262.101 183.4 261.701 183.3 261.401 183.1C261.201 182.9 261.001 182.7 260.901 182.4C261.601 182.4 262.401 182.1 262.401 181.3C262.901 181.8 263.501 182.2 264.201 182.4C263.601 182.7 263.001 183 262.401 183.2Z" fill="#34323D"/>
<path d="M293.901 174.1C292.801 173.7 267.401 176.8 265.301 176.3C265.301 181 268.201 185.2 272.501 186.9C272.501 186.9 291.001 190.6 296.801 187.7" fill="#3C3B3B"/>
<path d="M284.9 317.6L280 319.4C279.7 320.3 278.9 321 278 321.2C277.8 321.4 277.6 321.6 277.3 321.6C275.3 321.7 273.3 321.4 271.4 320.7C269 320 259.8 316.4 262.4 323C264.1 324.2 266 325.2 267.7 326.3C268.7 326.9 269.6 327.5 270.6 328C271.1 328.4 271.7 328.6 272.3 328.8C273.7 329 276.8 328 276.9 328.3C277 328.6 277.3 331.2 277.3 331.2C277.3 331.2 285.7 334.4 286.1 328.8C286.1 328 284.9 317.6 284.9 317.6Z" fill="#34323D"/>
<path d="M291.8 267.1C292.8 250.5 293.4 233.8 296.9 217.5C297 213.3 299.8 216 299.6 214.3C298.1 200.6 278.2 216.9 278.2 216.9C277.4 217.6 277.3 221.8 277.1 222.7C276.2 227.9 275.4 233.2 274.8 238.5C271.5 265.1 272.7 291.7 274.1 318.4C278.3 322.7 281.1 324 287.9 321.2C289.3 303.7 290.5 286.2 291.7 268.7L291.8 267.1Z" fill="#34323D"/>
<path d="M303.1 204.4C303.9 196.2 304.1 187.9 303.6 179.7C303.5 177.5 302.9 172.2 300.7 171C296 168.2 289.4 170.7 285.4 173.6C280.1 177.5 277 214 277 223C284.3 225.9 293.9 227 301.4 223.9C302.1 223.6 302.2 214.7 302.3 213.5C302.5 210.6 302.8 207.5 303.1 204.4Z" fill="#F5F5F5"/>
<path d="M287.9 192.5C287.4 197.8 283.7 202.2 278.6 203.6C278.6 204.1 278.4 207.3 278.4 207.7C284.4 206.3 288.8 198.8 289.4 192.4C289.5 191.5 288 191.5 287.9 192.5Z" fill="#3C3B3B"/>
<path d="M283.3 158.899C282.8 159.099 280.501 169.299 283.201 174.799C285.901 180.299 294.501 172.499 296.201 167.699C297.901 162.899 292.1 154.799 283.3 158.899Z" fill="#FCBF81"/>
<path d="M283.701 160.2C284.101 162 285.401 163.4 287.201 163.8C290.101 164.3 292.501 164.5 292.601 165.8C292.701 167.1 287.601 166.6 288.201 169.4C288.601 171.3 289.201 173.2 290.101 175C290.701 176.4 298.001 170.5 299.301 162.6C300.601 154.7 293.501 154 293.101 154C291.801 152.7 290.101 152 288.301 152C284.801 151.9 284.201 153.4 284.201 153.4C282.501 152.8 280.501 153.4 279.501 154.8C276.901 157.8 278.501 162.1 282.301 163.2L283.701 160.2Z" fill="#34323D"/>
<path d="M287.9 178.8C287.9 178.8 270.7 188.6 264.6 188.6C258.6 188.2 252.7 187.5 246.8 186.4C242.5 190 242.3 196.3 244.9 201.1C252.4 202.3 274.6 205.5 281.6 202.1C290 198 299.3 192.3 299.3 192.3C299.3 192.3 307.5 184.1 287.9 178.8Z" fill="#F5F5F5"/>
</svg>
